<svg width="401" height="190" viewBox="0 0 401 190" fill="none" xmlns="http://www.w3.org/2000/svg">
<path d="M53.4873 171.634H53.752L70.9863 101.132H107.239V190H85.0518V116.535H84.7217L66.6943 187.564H40.5449L22.5176 116.535H22.1875V190H0V101H36.2832L53.4873 171.634ZM205.564 190H182.452L176.443 168.343H146.134L140.059 190H116.947L145.342 101H177.104L205.564 190ZM265.145 101.132C275.049 101.132 281.652 103.787 284.954 109.097C288.3 114.407 289.973 120.814 289.973 128.318C289.973 135.691 288.212 141.901 284.69 146.948C282.403 150.239 278.668 152.446 273.485 153.572L291.558 190H267.191L250.921 154.453H236.354V190H213.836V101.132H265.145ZM373 116.338H346.521V190H324.003V116.338H297.457V101.132H373V116.338ZM149.832 153.597H172.812L161.388 114.1H161.189L149.832 153.597ZM236.354 140.761H257.683C261.424 140.761 263.977 139.707 265.342 137.601C266.751 135.45 267.455 132.444 267.455 128.582C267.455 124.676 266.751 121.67 265.342 119.563C263.933 117.413 261.38 116.338 257.683 116.338H236.354V140.761ZM22.5244 73.8369H58.7236V89H0V0H22.5244V73.8369ZM94.5889 89H72.1963V0H94.5889V89ZM149.755 73.2441H149.887L168.911 0H191.7L165.08 89H134.496L107.876 0H130.665L149.755 73.2441ZM266 15.2285H223.262V36.6553H262.962V51.1582H223.262V73.7715H266V89H200.804V0H266V15.2285Z" fill="#111111"/>
<path d="M401 174.5C401 183.06 394.06 190 385.5 190C376.94 190 370 183.06 370 174.5C370 165.94 376.94 159 385.5 159C394.06 159 401 165.94 401 174.5Z" fill="#FF6161"/>
</svg>
